# Created by Kenney (www.kenney.nl)

mtllib character-c.mtl

g leg-left

v 0.4 0 0.2 1 1 1
v 0.4 0 -0.2 1 1 1
v 0 0 0.2 1 1 1
v 0 0 -0.2 1 1 1
v 0.4 1 0.2 1 1 1
v 0 1 0.2 1 1 1
v 0.4 1 -0.2 1 1 1
v 0 1 -0.2 1 1 1

vn 0 -1 0
vn 0.5773503 0.5773503 0.5773503
vn -0.5773503 0.5773503 0.5773503
vn 0.5773503 0.5773503 -0.5773503
vn -0.5773503 0.5773503 -0.5773503
vn 0 0 1
vn 1 0 0
vn -1 0 0
vn 0 0 -1

vt -0.1276279 -0.7844663
vt -0.1276279 -0.8416091
vt -0.1847707 -0.7844663
vt -0.1847707 -0.8416091
vt -0.1901652 -0.8409724
vt -0.2473081 -0.8409724
vt -0.1901652 -0.7838295
vt -0.2473081 -0.7838295
vt -0.1274172 -0.9930862
vt -0.1845601 -0.9930862
vt -0.1274172 -0.8502291
vt -0.1845601 -0.8502291
vt -0.06526454 -0.8502298
vt -0.06526454 -0.9930869
vt -0.1224074 -0.8502298
vt -0.1224074 -0.9930869
vt -0.2470451 -0.9930562
vt -0.2470451 -0.8501991
vt -0.1899023 -0.9930562
vt -0.1899023 -0.8501991
vt -0.002955765 -0.9930934
vt -0.06009862 -0.9930934
vt -0.002955765 -0.8502362
vt -0.06009862 -0.8502362

usemtl texture-c

f 3/3/1 2/2/1 1/1/1
f 2/2/1 3/3/1 4/4/1
f 7/7/4 6/6/3 5/5/2
f 6/6/3 7/7/4 8/8/5
f 5/11/2 3/10/6 1/9/6
f 3/10/6 5/11/2 6/12/3
f 5/15/2 2/14/7 7/13/4
f 2/14/7 5/15/2 1/16/7
f 3/19/8 8/18/5 4/17/8
f 8/18/5 3/19/8 6/20/3
f 8/23/5 2/22/9 4/21/9
f 2/22/9 8/23/5 7/24/4

g leg-right

v -0.4 0 0.2 1 1 1
v -0.4 0 -0.2 1 1 1
v -0.4 1 0.2 1 1 1
v -0.4 1 -0.2 1 1 1


vt -0.4092069 -0.7841768
vt -0.4092069 -0.8413196
vt -0.4663498 -0.7841768
vt -0.4663498 -0.8413196
vt -0.4713403 -0.8414736
vt -0.5284832 -0.8414736
vt -0.4713403 -0.7843308
vt -0.5284832 -0.7843308
vt -0.4087348 -0.9931068
vt -0.4658776 -0.9931068
vt -0.4087348 -0.8502496
vt -0.4658776 -0.8502496
vt -0.346162 -0.8502591
vt -0.346162 -0.9931163
vt -0.4033048 -0.8502591
vt -0.4033048 -0.9931163
vt -0.5282465 -0.9930971
vt -0.5282465 -0.8502399
vt -0.4711036 -0.9930971
vt -0.4711036 -0.8502399
vt -0.283694 -0.9930919
vt -0.3408369 -0.9930919
vt -0.283694 -0.8502347
vt -0.3408369 -0.8502347

usemtl texture-c

f 9/27/1 4/26/1 3/25/1
f 4/26/1 9/27/1 10/28/1
f 8/31/4 11/30/3 6/29/2
f 11/30/3 8/31/4 12/32/5
f 6/35/2 9/34/6 3/33/6
f 9/34/6 6/35/2 11/36/3
f 6/39/2 4/38/7 8/37/4
f 4/38/7 6/39/2 3/40/7
f 9/43/8 12/42/5 10/41/8
f 12/42/5 9/43/8 11/44/3
f 12/47/5 4/46/9 10/45/9
f 4/46/9 12/47/5 8/48/4

g torso

v 0.4 1 -0.3 1 1 1
v -0.4 1 -0.3 1 1 1
v 0.4 1 0.3 1 1 1
v -0.4 1 0.3 1 1 1
v -0.4 1.9 -0.3 1 1 1
v 0.4 1.9 -0.3 1 1 1
v 0.4 1.9 0.3 1 1 1
v -0.4 1.9 0.3 1 1 1

vn 0 1 0

vt 0.213036 -0.9969269
vt 0.09875025 -0.9969269
vt 0.213036 -0.9112126
vt 0.09875025 -0.9112126
vt 0.4323702 -0.9000936
vt 0.3180845 -0.9000936
vt 0.4323702 -0.7715222
vt 0.3180845 -0.7715222
vt 0.3084922 -0.7714589
vt 0.3084922 -0.9000304
vt 0.222778 -0.7714589
vt 0.222778 -0.9000304
vt 0.2133337 -0.9000356
vt 0.09904797 -0.9000356
vt 0.2133337 -0.7714641
vt 0.09904797 -0.7714641
vt 0.2136029 -0.6762814
vt 0.2136029 -0.7619957
vt 0.09931722 -0.6762814
vt 0.09931722 -0.7619957
vt 0.004429361 -0.7714444
vt 0.09014364 -0.7714444
vt 0.004429361 -0.9000158
vt 0.09014364 -0.9000158

usemtl texture-c

f 15/51/1 14/50/1 13/49/1
f 14/50/1 15/51/1 16/52/1
f 17/55/9 13/54/9 14/53/9
f 13/54/9 17/55/9 18/56/9
f 19/59/7 13/58/7 18/57/7
f 13/58/7 19/59/7 15/60/7
f 19/63/6 16/62/6 15/61/6
f 16/62/6 19/63/6 20/64/6
f 17/67/10 19/66/10 18/65/10
f 19/66/10 17/67/10 20/68/10
f 14/71/8 20/70/8 17/69/8
f 20/70/8 14/71/8 16/72/8

g arm-left

v 0.8 1.9 -0.3 1 1 1
v 0.8 0.8 -0.3 1 1 1
v 0.8 1.9 0.1 1 1 1
v 0.8 0.8 0.1 1 1 1
v 0.4 0.8 -0.3 1 1 1
v 0.4 0.8 0.1 1 1 1
v 0.4 1.9 0.1 1 1 1


vt 0.9351701 -0.5885459
vt 0.9351701 -0.7456887
vt 0.8780273 -0.5885459
vt 0.8780273 -0.7456887
vt 0.9404884 -0.7456869
vt 0.9404884 -0.588544
vt 0.9976313 -0.7456869
vt 0.9976313 -0.588544
vt 0.8728131 -0.745661
vt 0.8156703 -0.745661
vt 0.8728131 -0.5885182
vt 0.8156703 -0.5885182
vt 0.7527975 -0.7456434
vt 0.7527975 -0.5885006
vt 0.8099404 -0.7456434
vt 0.8099404 -0.5885006
vt 0.8100958 -0.5817164
vt 0.752953 -0.5817164
vt 0.8100958 -0.5245736
vt 0.752953 -0.5245736
vt 0.872261 -0.5239998
vt 0.872261 -0.5811426
vt 0.8151181 -0.5239998
vt 0.8151181 -0.5811426

usemtl texture-c

f 23/75/2 22/74/7 21/73/4
f 22/74/7 23/75/2 24/76/7
f 25/79/9 21/78/4 22/77/9
f 21/78/4 25/79/9 18/80/5
f 23/83/2 26/82/6 24/81/6
f 26/82/6 23/83/2 27/84/3
f 26/87/8 18/86/5 25/85/8
f 18/86/5 26/87/8 27/88/3
f 21/91/4 27/90/3 23/89/2
f 27/90/3 21/91/4 18/92/5
f 26/95/1 22/94/1 24/93/1
f 22/94/1 26/95/1 25/96/1

g arm-right

v -0.4 0.8 -0.3 1 1 1
v -0.4 1.9 0.1 1 1 1
v -0.4 0.8 0.1 1 1 1
v -0.8000001 0.8 -0.3 1 1 1
v -0.8 1.9 -0.3 1 1 1
v -0.8 1.9 0.1 1 1 1
v -0.8000001 0.8 0.1 1 1 1


vt 0.6540014 -0.5884858
vt 0.6540014 -0.7456287
vt 0.5968586 -0.5884858
vt 0.5968586 -0.7456287
vt 0.6594678 -0.7456114
vt 0.6594678 -0.5884685
vt 0.7166106 -0.7456114
vt 0.7166106 -0.5884685
vt 0.5284317 -0.5819408
vt 0.4712888 -0.5819408
vt 0.5284317 -0.524798
vt 0.4712888 -0.524798
vt 0.5905846 -0.5242404
vt 0.5905846 -0.5813833
vt 0.5334417 -0.5242404
vt 0.5334417 -0.5813833
vt 0.4712825 -0.745617
vt 0.4712825 -0.5884741
vt 0.5284253 -0.745617
vt 0.5284253 -0.5884741
vt 0.5914533 -0.7456337
vt 0.5343104 -0.7456337
vt 0.5914533 -0.5884908
vt 0.5343104 -0.5884908

usemtl texture-c

f 29/99/2 28/98/7 17/97/4
f 28/98/7 29/99/2 30/100/7
f 31/103/9 17/102/4 28/101/9
f 17/102/4 31/103/9 32/104/5
f 17/107/4 33/106/3 29/105/2
f 33/106/3 17/107/4 32/108/5
f 34/111/1 28/110/1 30/109/1
f 28/110/1 34/111/1 31/112/1
f 34/115/8 32/114/5 31/113/8
f 32/114/5 34/115/8 33/116/3
f 29/119/2 34/118/6 30/117/6
f 34/118/6 29/119/2 33/120/3

g head

v -0.4 1.9 -0.4 1 1 1
v -0.4 2.7 -0.4 1 1 1
v -0.4 1.9 0.4 1 1 1
v -0.4 2.7 0.4 1 1 1
v 0.4 2.7 -0.4 1 1 1
v 0.4 2.7 0.4 1 1 1
v 0.4 1.9 -0.4 1 1 1
v 0.4 1.9 0.4 1 1 1

vn -0.1 0 0
vn -0.07071068 0 0.07071068
vn -0.05773503 0.05773503 0.05773503
vn 0 0.1 0
vn 0.05773503 0.05773503 0.05773503
vn 0.1 0 0
vn 0.07071068 0 0.07071068
vn 0 0 -0.1
vn 0 -0.1 0

vt 0.01791575 -0.2436106
vt 0.01791575 -0.1293249
vt 0.1322015 -0.2436106
vt 0.1322015 -0.1293249
vt 0.2445403 -0.005625569
vt 0.2445403 -0.1199113
vt 0.1302546 -0.005625569
vt 0.1302546 -0.1199113
vt 0.3591462 -0.1292631
vt 0.3591462 -0.2435488
vt 0.2448605 -0.1292631
vt 0.2448605 -0.2435488
vt 0.1309243 -0.2436291
vt 0.2452101 -0.1293434
vt 0.1309243 -0.1293434
vt 0.4943026 -0.2435139
vt 0.3800169 -0.2435139
vt 0.4943026 -0.1292282
vt 0.3800169 -0.1292282
vt 0.2440955 -0.3655856
vt 0.1298098 -0.3655856
vt 0.2440955 -0.2512999
vt 0.1298098 -0.2512999

usemtl texture-c

f 37/123/12 36/122/11 35/121/11
f 36/122/11 37/123/12 38/124/13
f 36/127/14 40/126/15 39/125/14
f 40/126/15 36/127/14 38/128/13
f 40/131/15 41/130/16 39/129/16
f 41/130/16 40/131/15 42/132/17
f 40/134/15 37/133/12 42/132/17
f 37/133/12 40/134/15 38/135/13
f 36/138/18 41/137/18 35/136/18
f 41/137/18 36/138/18 39/139/18
f 42/142/19 35/141/19 41/140/19
f 35/141/19 42/142/19 37/143/19

